<svg width="235" height="55" viewBox="0 0 235 55" fill="none" xmlns="http://www.w3.org/2000/svg">
<path d="M111.787 9.15527V20.5673L110.455 19.3433H114.127V25.3733H110.617V21.9533L111.643 22.6553H97.6394V9.15527H101.365V20.5673L100.159 19.3433H109.375L108.061 20.5673V9.15527H111.787ZM125.047 16.0493L125.353 15.3473C126.397 15.3713 127.255 15.5333 127.927 15.8333C128.611 16.1213 129.121 16.5293 129.457 17.0573C129.793 17.5733 129.961 18.1733 129.961 18.8573C129.961 19.5893 129.793 20.2433 129.457 20.8193C129.121 21.3833 128.617 21.8333 127.945 22.1693C127.285 22.4933 126.457 22.6553 125.461 22.6553H115.489L116.533 15.7253L115.489 9.15527H125.101C126.349 9.15527 127.321 9.44927 128.017 10.0373C128.713 10.6133 129.061 11.4173 129.061 12.4493C129.061 13.0133 128.929 13.5533 128.665 14.0693C128.401 14.5853 127.975 15.0233 127.387 15.3833C126.811 15.7313 126.031 15.9533 125.047 16.0493ZM119.179 21.7913L117.739 20.0453H124.453C124.993 20.0453 125.413 19.9133 125.713 19.6493C126.013 19.3853 126.163 19.0193 126.163 18.5513C126.163 18.0833 126.001 17.7113 125.677 17.4353C125.353 17.1473 124.873 17.0033 124.237 17.0033H118.693V14.4473H123.733C124.165 14.4473 124.525 14.3213 124.813 14.0693C125.113 13.8053 125.263 13.4513 125.263 13.0073C125.263 12.6473 125.137 12.3533 124.885 12.1253C124.633 11.8853 124.273 11.7653 123.805 11.7653H117.757L119.179 10.0193L120.097 15.7253L119.179 21.7913ZM143.332 14.5553V17.2553H133.45V14.5553H143.332ZM135.988 15.9053L135.106 21.3233L133.594 19.6313H143.926V22.6553H131.38L132.406 15.9053L131.38 9.15527H143.836V12.1793H133.594L135.106 10.4873L135.988 15.9053ZM150.174 10.7933H153.918V22.6553H150.174V10.7933ZM145.026 9.15527H159.066V12.4673H145.026V9.15527ZM163.861 22.6553L166.291 18.4253H166.345L171.619 9.15527H175.669L167.911 22.6553H163.861ZM166.237 20.8373L159.487 9.15527H163.609L168.883 18.3353L166.237 20.8373ZM198.876 9.15527V20.8913L197.274 19.3433H201.216V25.3733H197.706V21.3053L199.398 22.6553H176.934V9.15527H180.66V20.8913L179.058 19.3433H187.644L186.042 20.8913V9.15527H189.768V20.8913L188.166 19.3433H196.752L195.15 20.8913V9.15527H198.876ZM205.56 20.0633V17.0573H214.866V20.0633H205.56ZM212.742 9.15527L218.88 22.6553H214.902L209.754 10.7393H210.834L205.668 22.6553H201.69L207.828 9.15527H212.742ZM230.527 15.1493V17.7953H224.893L224.875 17.7233C223.843 17.7233 222.937 17.5493 222.157 17.2013C221.389 16.8533 220.789 16.3613 220.357 15.7253C219.937 15.0893 219.727 14.3453 219.727 13.4933C219.727 12.6173 219.937 11.8613 220.357 11.2253C220.789 10.5773 221.389 10.0733 222.157 9.71327C222.937 9.34127 223.843 9.15527 224.875 9.15527H233.119V22.6553H229.375V10.1453L231.049 11.8193H225.415C224.803 11.8193 224.323 11.9693 223.975 12.2693C223.639 12.5573 223.471 12.9653 223.471 13.4933C223.471 14.0093 223.639 14.4173 223.975 14.7173C224.323 15.0053 224.803 15.1493 225.415 15.1493H230.527ZM228.295 16.3373L223.687 22.6553H219.367L224.119 16.3373H228.295ZM103.993 43.9433C102.565 43.9433 101.311 43.7453 100.231 43.3493C99.1634 42.9533 98.3294 42.3893 97.7294 41.6573C97.1414 40.9253 96.8234 40.0673 96.7754 39.0833H100.519C100.603 39.7313 100.939 40.2293 101.527 40.5773C102.115 40.9133 102.937 41.0813 103.993 41.0813C104.989 41.0813 105.757 40.9493 106.297 40.6853C106.837 40.4093 107.107 40.0013 107.107 39.4613C107.107 38.9933 106.873 38.6513 106.405 38.4353C105.949 38.2193 105.193 38.1113 104.137 38.1113H101.671V35.6453H104.083C104.707 35.6453 105.217 35.5913 105.613 35.4833C106.009 35.3633 106.303 35.1953 106.495 34.9793C106.699 34.7633 106.801 34.5113 106.801 34.2233C106.801 33.8993 106.687 33.6293 106.459 33.4133C106.243 33.1853 105.925 33.0173 105.505 32.9093C105.097 32.7893 104.599 32.7293 104.011 32.7293C103.039 32.7293 102.277 32.8973 101.725 33.2333C101.173 33.5573 100.849 34.0253 100.753 34.6373H97.0454C97.1174 33.7493 97.4294 32.9453 97.9814 32.2253C98.5454 31.5053 99.3494 30.9353 100.393 30.5153C101.437 30.0833 102.703 29.8673 104.191 29.8673C105.475 29.8673 106.597 30.0293 107.557 30.3533C108.517 30.6653 109.261 31.1093 109.789 31.6853C110.329 32.2493 110.599 32.9093 110.599 33.6653C110.599 34.2773 110.413 34.8353 110.041 35.3393C109.681 35.8433 109.105 36.2453 108.313 36.5453C107.533 36.8453 106.519 36.9953 105.271 36.9953V36.6173C106.447 36.5573 107.455 36.6353 108.295 36.8513C109.147 37.0673 109.801 37.4153 110.257 37.8953C110.713 38.3753 110.941 38.9933 110.941 39.7493C110.941 40.5653 110.671 41.2913 110.131 41.9273C109.591 42.5513 108.805 43.0433 107.773 43.4033C106.741 43.7633 105.481 43.9433 103.993 43.9433ZM124.435 35.5553V38.2553H114.553V35.5553H124.435ZM117.091 36.9053L116.209 42.3233L114.697 40.6313H125.029V43.6553H112.483L113.509 36.9053L112.483 30.1553H124.939V33.1793H114.697L116.209 31.4873L117.091 36.9053ZM146.916 30.1553V43.6553H143.37V31.4873L144.162 31.5773L138.942 43.6553H135.162L129.924 31.6133L130.734 31.5233V43.6553H127.188V30.1553H132.948L137.79 41.7473H136.35L141.156 30.1553H146.916ZM151.692 30.1553H164.94V43.6553H161.196V31.7753L162.888 33.4673H153.78L155.346 32.2253C155.442 33.0173 155.508 33.7793 155.544 34.5113C155.58 35.2313 155.598 35.9153 155.598 36.5633C155.598 38.2913 155.442 39.7013 155.13 40.7933C154.818 41.8733 154.326 42.6653 153.654 43.1693C152.982 43.6733 152.112 43.9253 151.044 43.9253C150.576 43.9253 150.114 43.8773 149.658 43.7813C149.214 43.6853 148.806 43.5413 148.434 43.3493V40.2533C148.962 40.4573 149.448 40.5593 149.892 40.5593C150.672 40.5593 151.23 40.2053 151.566 39.4973C151.914 38.7893 152.088 37.6313 152.088 36.0233C152.088 35.2433 152.052 34.3673 151.98 33.3953C151.92 32.4233 151.824 31.3433 151.692 30.1553ZM177.81 36.1493V38.7953H172.176L172.158 38.7233C171.126 38.7233 170.22 38.5493 169.44 38.2013C168.672 37.8533 168.072 37.3613 167.64 36.7253C167.22 36.0893 167.01 35.3453 167.01 34.4933C167.01 33.6173 167.22 32.8613 167.64 32.2253C168.072 31.5773 168.672 31.0733 169.44 30.7133C170.22 30.3413 171.126 30.1553 172.158 30.1553H180.402V43.6553H176.658V31.1453L178.332 32.8193H172.698C172.086 32.8193 171.606 32.9693 171.258 33.2693C170.922 33.5573 170.754 33.9653 170.754 34.4933C170.754 35.0093 170.922 35.4173 171.258 35.7173C171.606 36.0053 172.086 36.1493 172.698 36.1493H177.81ZM175.578 37.3373L170.97 43.6553H166.65L171.402 37.3373H175.578Z" fill="white"/>
<path d="M78.4857 39.4153C77.5948 38.3351 76.7745 37.4908 76.0957 37.042C74.3068 35.8554 71.5846 36.1369 69.131 36.8062C66.1613 37.6125 63.6017 38.9817 63.6017 38.9817L63.538 38.9208L62.937 39.9401C63.0643 40.1075 63.1845 40.2824 63.2976 40.4574C63.333 40.5106 63.3683 40.5639 63.4037 40.6247C64.6976 44.8083 66.4229 51.2587 72.1149 53.3657C78.6483 55.7845 87.6989 53.5406 87.6989 53.5406C87.6989 53.5406 82.41 44.1846 78.4857 39.4153ZM69.8452 42.534C68.7704 41.3245 66.6987 39.75 64.9522 39.7271C65.8007 39.4913 66.7128 39.7956 67.4694 40.1683C68.2189 40.5334 68.9048 41.0279 69.5341 41.5983C71.627 43.5 74.1796 45.1658 76.5695 46.824C79.3907 48.7789 84.7221 52.1866 84.6373 52.2855C78.2099 49.9427 71.6977 44.6181 69.8452 42.534Z" fill="#A0C056"/>
<path d="M76.0957 37.042C74.3068 35.8554 71.5845 36.1369 69.131 36.8062C69.1098 36.8823 69.0956 36.9279 69.0956 36.9279L69.0391 36.9355L69.2441 37.7266C69.3785 37.7342 69.5199 37.7494 69.6542 37.7647C69.6966 37.7723 69.7391 37.7799 69.7815 37.7799C72.0371 38.8372 75.2826 40.5182 78.4786 39.4153C77.5947 38.3351 76.7745 37.4908 76.0957 37.042Z" fill="#A0C056"/>
<path d="M74.2931 28.1804C71.5072 29.0628 69.8102 34.8209 69.5557 35.7413C72.0022 35.0795 74.7315 34.7905 76.5204 35.9771C77.1921 36.4259 78.0123 37.2702 78.9103 38.3504C79.3275 38.2058 79.7517 38.0157 80.1618 37.7647C84.27 35.3077 87.3246 29.367 87.3246 29.367C87.3246 29.367 77.086 27.2981 74.2931 28.1804ZM74.0385 34.0831C72.9779 34.1211 71.3021 34.5319 70.4961 35.4675C70.7718 34.897 71.3304 34.5395 71.8466 34.3037C72.3557 34.0603 72.9001 33.9157 73.4587 33.8321C75.3042 33.5582 77.2487 32.9269 79.1154 32.3792C81.3144 31.7327 85.3447 30.3787 85.3518 30.47C81.3215 32.8965 75.8557 34.0222 74.0385 34.0831Z" fill="#A0C056"/>
<path d="M24.0619 41.971L23.9982 42.0014C23.9982 42.0014 22.2447 40.0541 19.9962 38.4491C18.1436 37.1256 15.9588 36.0302 14.1486 36.4486C13.4698 36.6083 12.5577 37.0495 11.5183 37.6657C6.95058 40.3812 0 46.4816 0 46.4816C0 46.4816 6.90109 51.2053 12.9961 51.2585C18.2992 51.3042 21.4881 46.4892 23.7083 43.4238C23.7508 43.3934 23.7932 43.3553 23.8427 43.3173C23.9912 43.2108 24.1397 43.1043 24.2882 43.0054L24.0619 41.971ZM17.8396 42.9826C15.7325 44.1312 8.86677 46.4968 2.88488 46.4132C2.84246 46.2991 8.20211 45.1581 11.0799 44.4279C13.5193 43.8041 16.1002 43.226 18.3558 42.3056C19.0346 42.0318 19.7416 41.834 20.4629 41.7656C21.1911 41.6971 22.0326 41.7275 22.676 42.1915C21.2124 41.6667 19.0628 42.3132 17.8396 42.9826Z" fill="#A0C056"/>
<path d="M18.3838 28.8345C16.0292 27.0013 5.72705 25.2747 5.72705 25.2747C5.72705 25.2747 6.76646 31.976 9.8776 35.7641C10.1958 36.152 10.5281 36.4791 10.8817 36.7681C12.0554 36.0683 13.0948 35.5663 13.8655 35.3837C15.9231 34.9045 18.3979 36.152 20.505 37.6581C20.5545 36.7073 20.7454 30.6677 18.3838 28.8345ZM16.7999 34.4862C15.1029 33.7788 10.3018 30.759 7.25434 27.0242C7.28969 26.9405 10.6695 29.6636 12.5433 31.0632C14.1342 32.2499 15.7746 33.543 17.4292 34.4634C17.9242 34.7372 18.3908 35.0795 18.8009 35.4826C19.2181 35.901 19.6353 36.4334 19.7131 37.0724C19.2464 35.8934 17.7898 34.9045 16.7999 34.4862Z" fill="#A0C056"/>
<path d="M42.1629 3.37347C44.2064 2.90003 46.363 2.86715 48.4206 3.28141C48.9297 3.38004 49.4317 3.51155 49.9267 3.66937C50.4216 3.82718 50.9095 4.01787 51.3974 4.20199C52.3378 4.55707 53.3277 4.91215 54.3601 4.899C54.9328 4.89242 55.4772 4.74118 56.0146 4.57679C56.5591 4.41241 57.1035 4.23487 57.6763 4.20199C57.7258 4.20199 57.754 4.16253 57.747 4.11651C57.5843 3.13675 56.856 2.26877 55.9015 1.83479C55.3782 1.59807 54.8126 1.51916 54.2328 1.53231C53.5823 1.55204 52.9388 1.66382 52.2883 1.70328C51.6519 1.73615 51.0297 1.67697 50.4641 1.38765C49.9408 1.11805 49.5024 0.730093 48.9933 0.440768C48.4772 0.144868 47.9044 -0.00636995 47.3034 0.000205605C46.7024 0.00678116 46.1084 0.158019 45.5711 0.401315C44.4044 0.914208 43.5418 1.84794 42.764 2.76852C42.665 2.88688 42.566 2.99866 42.4741 3.11702C42.4599 3.13675 42.4529 3.15647 42.4599 3.1762C42.3468 3.2025 42.2337 3.22223 42.1276 3.24853C42.0286 3.26826 42.071 3.39977 42.1629 3.37347Z" fill="#FDFF8F"/>
<path d="M48.6611 18.0373C49.2834 17.4849 49.7005 17.1167 50.1177 16.7419C50.0682 16.6235 50.0116 16.5052 49.9621 16.3802C49.4884 16.6104 48.9793 16.7945 48.5621 17.097C48.4561 17.1825 48.6116 17.5901 48.6611 18.0373Z" fill="#FDFF8F"/>
<path d="M47.8766 21.463C49.8918 20.6608 51.4403 19.5824 52.6706 18.116C53.3423 17.3138 53.307 15.979 52.614 15.019C52.4302 15.3017 52.2817 15.6239 52.1191 15.933C51.5181 16.4524 50.7191 16.7878 50.1039 17.2941C49.2908 17.9648 48.7605 18.8657 48.3574 19.7862C48.1877 20.1742 48.0392 20.5753 47.8978 20.9764C47.7988 21.1671 47.7069 21.3644 47.6079 21.5682C47.6645 21.5485 47.721 21.5222 47.7705 21.5025C47.8059 21.5156 47.8554 21.509 47.8766 21.463Z" fill="#FDFF8F"/>
<path d="M51.2632 15.4331C51.4541 15.1635 51.5743 14.9202 51.645 14.7032C51.7581 14.552 51.8571 14.3876 51.9137 14.2101C52.0198 13.8813 51.942 13.5328 51.7157 13.2632C51.4824 12.9804 51.1359 12.816 50.7682 12.7634C50.344 12.7043 49.9268 12.7963 49.5379 12.9476C49.3329 13.0265 49.1349 13.1185 48.9228 13.1909C48.7036 13.2632 48.4914 13.2961 48.2581 13.3026C48.0177 13.3092 47.7844 13.2895 47.544 13.3092C47.3318 13.3289 47.1197 13.375 46.9217 13.4473C46.554 13.5854 46.2005 13.7761 45.8894 13.9996C45.5995 14.2035 45.3379 14.4468 45.147 14.7361C44.9348 15.0583 44.8217 15.4397 44.8853 15.8211C44.9419 16.2025 45.154 16.5641 45.4793 16.8074C45.55 16.86 45.6561 16.768 45.5854 16.7088C45.4793 16.6233 45.3874 16.5312 45.3096 16.4326C45.3944 16.5378 45.5146 16.6496 45.6702 16.7548C46.0308 15.4923 46.8581 14.8282 48.0955 14.4797C49.4106 14.0983 50.4359 14.4534 51.2632 15.4331Z" fill="#FDFF8F"/>
<path d="M54.6574 19.9506C55.1595 21.4301 56.3191 22.4099 57.415 23.4554C57.9878 24.0078 58.7302 23.8499 59.0625 23.1595C60.0312 21.1737 59.6848 19.1945 58.7514 17.3533C58.207 16.2881 57.3797 15.1439 56.3403 14.539C54.8696 13.6907 53.8938 12.849 53.6675 11.1525C53.3776 9.00891 52.3736 8.66698 50.514 9.91634C49.1352 10.8501 47.6503 11.4945 45.9816 11.7969C45.4018 11.9022 44.8361 12.0665 44.2775 12.2441C40.6149 13.4145 39.9219 17.8728 42.1209 19.9046C42.6512 20.3978 43.0401 21.0225 43.4927 21.588C43.5775 21.6011 43.6624 21.6077 43.7472 21.6208C43.6199 20.8252 43.5563 20.0098 43.3512 19.2339C42.7432 16.8667 44.2987 13.717 46.5543 12.7504C47.9614 12.1455 49.4109 12.1981 50.8392 12.5137C51.5675 12.6715 52.4372 12.9477 52.8756 13.454C53.7807 14.4929 54.3251 15.7817 54.1059 17.1626C53.9291 18.1884 54.3393 19.0301 54.6574 19.9506Z" fill="#FDFF8F"/>
<path d="M59.8685 28.3148C60.1937 28.1044 60.6109 27.6178 60.5473 27.3416C60.321 26.3487 59.9038 25.3953 59.5574 24.4221C59.4372 24.4418 59.317 24.4615 59.2038 24.4813C58.822 25.198 58.4543 25.9279 58.0442 26.6315C57.7472 27.1378 57.4644 27.6967 57.019 28.0781C54.9119 29.9061 52.5431 31.1686 49.5169 31.2541C47.7987 31.3067 46.038 31.5368 44.4047 32.0234C42.7006 32.5298 41.1238 32.6744 39.4198 32.1681C38.6915 31.9511 37.8854 31.9708 37.1006 31.8853C37.1006 32.1221 37.0723 32.1944 37.1076 32.2404C38.9602 35.0153 41.6683 36.817 44.8572 38.0138C45.1895 38.1387 45.8259 37.8625 46.1794 37.6061C47.8764 36.383 49.4603 35.0219 51.1997 33.858C54.0492 31.9643 56.9907 30.1823 59.8685 28.3148Z" fill="#FDFF8F"/>
<path d="M55.5835 5.58959C53.8229 5.76055 52.3168 5.24766 50.7895 4.55722C49.8986 4.15611 48.9087 3.72213 47.9541 3.68925C45.1399 3.59719 42.5732 4.43229 40.5439 6.27344C39.6884 7.04936 39.1227 8.13433 38.5358 9.14039C38.0126 10.0347 37.751 11.0736 37.1853 11.9416C35.8277 14.0063 36.8388 17.1363 39.5682 18.3133C39.4692 17.3204 39.6106 16.3735 39.2641 15.6239C38.4227 13.8419 38.557 12.4347 39.9995 11.0078C40.3035 10.7054 40.5722 10.3569 40.7843 9.99521C41.8096 8.22639 43.7258 7.51622 45.7904 8.16063C46.0803 8.25269 46.4551 8.41708 46.6814 8.32502C47.94 7.80555 48.9087 8.21981 49.7572 9.08778C49.9481 8.98915 50.0966 8.91682 50.245 8.83791C52.536 7.65431 53.9006 8.21323 54.5441 10.5936C54.6148 10.8435 54.7067 11.0999 54.6996 11.3564C54.6501 12.4742 55.3714 12.9937 56.3401 13.4737C57.1037 13.8551 57.8249 14.414 58.3906 15.0255C59.6421 16.3735 60.3633 17.9582 60.6391 19.7336C60.6462 19.944 60.6391 20.161 60.625 20.3714C60.5543 21.4827 60.0027 22.5414 60.0169 23.6592C60.0239 24.1853 60.2007 24.6587 60.4977 25.0993C60.731 25.4478 61.1977 25.9015 61.127 26.3486C61.0775 26.6314 61.3179 26.9602 61.6714 26.8549C63.3048 26.3486 64.7189 25.2965 65.5745 23.9025C66.5008 22.3836 66.7129 20.503 66.1543 18.8393C65.6169 17.2152 64.2523 15.9987 63.6371 14.4206C62.9866 12.7504 63.7644 10.8369 62.7038 9.25875C62.2088 8.51571 61.4593 8.15405 60.5401 8.07515C60.2007 8.04227 59.8047 8.06857 59.4229 8.04884C59.0411 7.77925 58.7017 7.41102 58.4967 7.04936C57.8532 5.87234 56.8067 5.47123 55.5835 5.58959Z" fill="#FDFF8F"/>
<path d="M40.0347 24.6454C41.1943 24.0733 42.2761 23.5341 43.4993 22.9292C42.5094 21.568 41.5902 20.299 40.5579 18.8786C39.9639 20.8184 39.3983 22.6333 40.0347 24.6454Z" fill="#FDFF8F"/>
<path d="M46.1583 22.3312C46.5119 21.9038 46.8654 21.6013 47.0563 21.2265C47.3886 20.5953 47.5301 19.8654 47.9119 19.267C48.4139 18.4845 47.9684 18.2478 47.3109 18.0111C46.3987 17.6889 45.4866 17.3535 44.4967 16.9919C43.7896 18.8659 44.624 20.5098 46.1583 22.3312Z" fill="#FDFF8F"/>
<path d="M50.6267 15.8805C50.0116 15.0257 49.2621 14.9336 48.3782 15.1704C47.4095 15.4334 46.5822 15.8016 46.3701 16.9589C46.8439 17.051 47.2681 17.1364 47.8267 17.2482C48.258 15.9068 49.3964 15.8476 50.6267 15.8805Z" fill="#FDFF8F"/>
<path d="M47.5438 9.03506C46.8438 8.96273 46.1155 9.04163 45.4508 8.87067C43.9942 8.49586 42.6366 8.943 41.7811 10.1463C41.3285 10.7842 40.8194 11.3957 40.2891 11.9809C39.5043 12.8489 39.4124 13.7958 39.7093 14.9136C42.1346 11.6521 42.17 11.6456 46.5044 10.5869C47.3528 10.3765 48.1589 10.0214 48.9862 9.73207C48.9862 9.58741 48.9862 9.44274 48.9791 9.29808C48.4983 9.20602 48.0246 9.08766 47.5438 9.03506Z" fill="#FDFF8F"/>
<path d="M36.9942 38.2438C37.4326 39.6312 39.1296 40.1901 40.4447 39.4208C41.1448 39.0065 41.7811 38.5068 42.5094 38.007C42.2407 37.8229 42.0215 37.6717 41.8023 37.527C39.7377 36.1856 37.8144 34.693 36.478 32.6677C36.1528 32.1745 35.8063 31.9378 35.2053 31.8523C33.0911 31.5564 31.479 30.6358 30.4608 28.7815C29.4638 26.9535 28.2264 25.2439 27.1587 23.4422C26.7204 22.7057 26.1193 22.4098 25.2921 22.5413C24.2314 22.7123 23.192 22.9556 21.9971 23.1989C26.1406 26.9733 21.8627 31.1093 22.7961 34.2853C22.9941 34.9626 23.291 35.6398 23.7011 36.2316C25.5537 38.9079 31.8396 37.9018 35.2265 37.2706C36.1881 37.093 36.7043 37.3298 36.9942 38.2438Z" fill="#FDFF8F"/>
<path d="M37.688 27.6112C39.1516 28.0715 40.4527 28.42 41.6971 28.8803C43.0689 29.3866 44.4335 29.4326 45.7416 28.8474C49.2629 27.2693 52.7558 25.6385 56.0296 24.1327C55.068 22.3113 54.1912 20.6477 53.3003 18.9643C53.2649 18.9906 53.1518 19.0564 53.067 19.1484C51.172 21.2197 48.7043 22.4297 45.9467 23.1595C43.5002 23.8105 41.3507 24.981 39.2931 26.3158C38.7698 26.6577 38.3173 27.0983 37.688 27.6112Z" fill="#FDFF8F"/>
<path d="M25.1011 20.74C26.1476 21.3252 26.9183 22.226 27.6112 23.1466C27.9435 23.5872 28.2617 24.0343 28.5941 24.4749C28.6223 24.5209 28.6435 24.5669 28.6718 24.613C28.6789 24.6064 28.686 24.6064 28.693 24.5998C28.7001 24.6064 28.7072 24.613 28.7072 24.6195C28.7143 24.6327 28.7213 24.6458 28.7284 24.6524C28.7496 24.6787 28.7708 24.7116 28.792 24.7379C28.8203 24.7773 28.8769 24.7708 28.9122 24.7445C29.9941 25.3034 31.1466 25.7571 32.3345 26.0793C32.4264 26.1253 32.5183 26.1779 32.6103 26.2305C32.5961 26.2042 32.582 26.1714 32.5678 26.1451C32.6032 26.1516 32.6315 26.1648 32.6668 26.1714C32.7587 26.1977 32.7941 26.0662 32.7092 26.0399C32.6315 26.0201 32.5608 26.0004 32.4901 25.9807C31.3729 23.8173 30.2486 21.963 29.485 19.9903C28.7143 18.0045 28.3961 15.8938 28.8203 13.566C28.8486 13.5463 28.8486 13.5134 28.8345 13.4871C28.8486 13.4082 28.8627 13.3293 28.884 13.2438C28.7991 13.3161 28.7072 13.3951 28.6223 13.4674C27.9789 13.5989 27.4132 13.9277 26.8971 14.2959C26.3526 14.6839 25.8364 15.1047 25.3273 15.5255C24.3304 16.3475 23.3546 17.2286 22.6405 18.2807C22.2445 18.8593 21.9404 19.4972 21.7637 20.1613C21.7495 20.2073 21.799 20.2599 21.8556 20.2468C22.9516 19.9114 24.1395 20.1942 25.1011 20.74Z" fill="#FDFF8F"/>
<path d="M29.3013 25.3951C29.5417 25.5727 29.7609 25.9475 30.0225 26.3026C30.475 26.9207 31.0478 27.473 31.3942 28.1306C32.5185 30.2808 34.4205 30.9909 36.8599 30.9909C38.0266 30.9909 39.1862 31.2802 40.3529 31.346C41.3357 31.3986 42.4317 31.5498 43.3014 31.2342C45.3307 30.5109 47.4166 30.2939 49.5308 30.1624C53.5823 29.9191 56.446 28.1108 58.1642 24.7244C58.1006 24.6192 58.0369 24.514 57.9733 24.4088C56.743 24.8888 55.4773 25.3162 54.2824 25.8686C52.1682 26.8549 50.1389 27.999 47.9964 28.9262C45.8681 29.8468 43.6903 30.5043 41.258 29.6166C38.7478 28.7026 36.1246 28.0517 33.5862 27.1837C32.1225 26.6971 30.7296 26.0001 29.3013 25.3951Z" fill="#FDFF8F"/>
<path d="M33.3742 25.8159C33.5934 26.1841 34.1095 26.4406 34.5479 26.651C35.9126 27.3217 37.0863 27.0916 38.0833 25.9606C38.4298 25.5726 38.9318 25.303 39.4126 24.9479C38.6348 23.1791 38.7056 21.3577 39.0803 19.5231C39.1298 19.293 38.9248 18.9642 38.7409 18.7603C37.8571 17.7477 36.8318 16.8205 36.054 15.7422C35.0146 14.3021 35.2126 12.816 36.2803 11.3891C36.7116 10.8171 37.1429 10.1595 37.2773 9.4888C37.3197 9.27181 37.3762 9.06139 37.4328 8.85755C38.154 7.6871 38.946 6.54952 39.851 5.49086C40.3743 4.88591 40.9329 4.30726 41.5409 3.76806C41.5692 3.74176 41.5692 3.69573 41.5409 3.66943C40.6924 2.92639 39.5611 2.48583 38.4015 2.42007C37.2631 2.35432 36.1318 2.67652 35.2197 3.31435C34.3358 3.93245 33.6712 4.81358 33.3883 5.81306C33.2186 6.41801 33.1762 7.04269 33.0206 7.65422C32.9429 7.95669 32.8439 8.25259 32.6883 8.52877C32.5398 8.79179 32.356 9.04166 32.158 9.27181C31.762 9.74525 31.3378 10.199 31.0267 10.7316C30.7368 11.2313 30.5317 11.7705 30.4186 12.3294C29.9449 13.5722 29.662 14.8084 29.7186 16.117C29.8459 19.7138 31.557 22.7912 33.3742 25.8159Z" fill="#FDFF8F"/>
<path d="M42.9264 42.7612C45.7548 41.0384 44.9911 39.1052 44.9911 39.1052C43.9022 38.3293 43.0679 38.3885 42.2901 39.2038C42.1062 39.3945 41.8658 39.5392 41.6608 39.7102C41.0456 40.2362 40.4587 40.565 39.8507 40.6965C39.7304 40.7162 39.6173 40.7359 39.5042 40.7491C38.7971 40.8148 38.0617 40.6176 37.2415 40.1507C37.1072 40.0784 36.987 40.0258 36.8809 39.9929C36.386 39.6444 36.1031 39.3025 36.1031 39.3025C36.1031 39.3025 33.4657 40.302 32.8859 43.2938C32.2991 46.2857 34.2506 48.3767 34.2506 48.3767C34.2506 48.3767 34.4486 47.1997 36.3011 45.1087C38.1395 43.0374 40.0911 44.4906 42.9264 42.7612Z" fill="#FDFF8F"/>
<path d="M73.614 20.6345C72.9989 18.8788 71.3231 17.7018 70.616 15.9987C70.1847 14.9663 70.517 13.934 70.616 12.8819C70.715 11.8429 70.4392 10.8435 69.52 10.1859C68.6362 9.55465 67.4271 9.42314 66.4018 9.81767C65.3907 10.2056 64.6271 11.067 64.3018 12.0271C63.927 14.0786 65.8432 15.5779 66.8544 17.0705C67.8796 18.5895 68.0847 20.5161 67.5119 22.2126C67.1867 23.1726 66.6352 24.0603 65.8503 24.7573C65.6311 24.9546 65.6523 25.2242 65.8786 25.4083C67.5261 26.7234 70.0857 26.8286 71.8463 25.6516C73.5009 24.5535 74.2363 22.423 73.614 20.6345Z" fill="#FDFF8F"/>
<path d="M65.9566 33.5621C64.4929 34.4104 62.6828 34.5682 61.2404 35.4624C59.9252 36.2844 59.3313 37.5469 59.006 38.9212C58.9495 39.4867 58.8575 40.0522 58.7373 40.6177C58.603 41.2358 58.4333 41.8539 58.2282 42.4523C58.0444 42.9915 57.8605 43.6359 57.5353 44.1225C57.203 44.6222 56.4252 44.5104 55.9019 44.4249C55.2656 44.3197 54.707 44.0501 54.1767 43.7213C53.7312 43.4452 53.2575 43.0704 52.7059 43.0178C52.5362 42.998 52.3383 43.0112 52.1544 43.0638L50.0261 42.255C50.019 42.255 50.012 42.2484 49.9978 42.2484L49.4322 42.0314H49.4251C48.8948 41.8013 48.414 41.4922 47.9968 41.0846C47.8837 40.9793 47.7847 40.8676 47.6857 40.7492C46.9928 39.993 46.618 39.1119 47.0281 38.2176C47.0635 38.0861 47.1483 38.0006 47.2473 37.9612C48.1029 37.0932 49.0362 36.2975 50.0968 35.6137C53.3211 33.549 56.5525 31.4842 59.7131 29.334C59.7484 29.3209 59.7838 29.3011 59.8192 29.2683L59.8262 29.2617C60.3283 28.9198 60.8303 28.5713 61.3323 28.2293C61.7141 27.9663 62.0535 27.6507 62.3788 27.3088C62.9091 27.026 63.4748 26.8024 64.0758 26.6775C64.9879 26.4802 65.8859 26.5591 66.7202 26.8222C66.8617 26.9866 66.9889 27.1575 67.0879 27.3022C67.4839 27.8677 67.8304 28.5252 67.9647 29.1959C68.2758 30.7478 67.4203 32.7073 65.9566 33.5621Z" fill="#FDFF8F"/>
</svg>
