<svg width="23" height="23" viewBox="0 0 23 23" fill="none" xmlns="http://www.w3.org/2000/svg">
<path d="M16.8572 3.93106C16.1489 3.93106 15.5823 4.4977 15.5823 5.206C15.5823 5.9143 16.1489 6.48094 16.8572 6.48094C17.5655 6.48094 18.1322 5.9143 18.1322 5.206C18.1322 4.4977 17.5655 3.93106 16.8572 3.93106Z" fill="white"/>
<path d="M11.1205 5.59552C8.11024 5.59552 5.70203 8.03915 5.70203 11.014C5.70203 14.0243 8.14566 16.4325 11.1205 16.4325C14.1308 16.4325 16.539 13.9889 16.539 11.014C16.539 8.03915 14.0954 5.59552 11.1205 5.59552ZM11.1205 14.4847C9.2081 14.4847 7.64985 12.9264 7.64985 11.014C7.64985 9.1016 9.2081 7.54334 11.1205 7.54334C13.0329 7.54334 14.5912 9.1016 14.5912 11.014C14.5912 12.9264 13.0329 14.4847 11.1205 14.4847Z" fill="white"/>
<path d="M15.4055 22.0281H6.62259C2.97485 22.0281 0 19.0886 0 15.4055V6.62259C0 2.97485 2.97485 0 6.62259 0H15.4055C19.0532 0 22.0281 2.97485 22.0281 6.62259V15.4409C22.0281 19.0886 19.0886 22.0281 15.4055 22.0281ZM6.62259 2.08948C4.10813 2.08948 2.08948 4.14355 2.08948 6.62259V15.4409C2.08948 17.9554 4.14355 19.974 6.62259 19.974H15.4055C17.92 19.974 19.9386 17.92 19.9386 15.4409V6.62259C19.9386 4.10813 17.8845 2.08948 15.4055 2.08948H6.62259Z" fill="white"/>
</svg>
