<svg width="22" height="17" viewBox="0 0 22 17" fill="none" xmlns="http://www.w3.org/2000/svg">
<path d="M1.34275 7.4162C1.34275 7.4162 11.0837 3.6865 14.4556 2.36557C15.7461 1.82166 20.1171 0.151065 20.1171 0.151065C20.1171 0.151065 22.1568 -0.587103 21.9903 1.20004C21.9487 1.93821 21.4908 4.50238 21.0329 7.29964C20.3668 11.2624 19.6175 15.5749 19.6175 15.5749C19.6175 15.5749 19.4926 16.7793 18.5352 16.9735C17.5777 17.1678 15.9959 16.2354 15.7045 16.0411C15.4963 15.8857 11.5 13.5158 10.043 12.3503C9.66839 12.0395 9.21048 11.4178 10.0847 10.6797C12.1245 8.93139 14.5389 6.79458 15.9959 5.4348C16.6619 4.81318 17.328 3.33685 14.5389 5.12399C10.5426 7.68815 6.62953 10.0969 6.62953 10.0969C6.62953 10.0969 5.71371 10.6408 4.04858 10.1358C2.34183 9.66955 0.385304 9.04794 0.385304 9.04794C0.385304 9.04794 -0.946798 8.27092 1.34275 7.4162Z" fill="white"/>
</svg>
